<svg width="9" height="12" viewBox="0 0 9 12" fill="none" xmlns="http://www.w3.org/2000/svg">
<path d="M4.49941 0.279297C2.30274 0.279297 0.515625 2.06424 0.515625 4.25822C0.515625 6.98102 4.08072 10.9783 4.23251 11.1471C4.37508 11.3057 4.624 11.3054 4.76631 11.1471C4.9181 10.9783 8.48319 6.98102 8.48319 4.25822C8.48315 2.06424 6.69606 0.279297 4.49941 0.279297ZM4.49941 6.26013C3.39421 6.26013 2.49509 5.36208 2.49509 4.25822C2.49509 3.15436 3.39423 2.25634 4.49941 2.25634C5.60459 2.25634 6.50371 3.15439 6.50371 4.25824C6.50371 5.3621 5.60459 6.26013 4.49941 6.26013Z" fill="white"/>
</svg>
