<svg width="127" height="38" viewBox="0 0 127 38" fill="none" xmlns="http://www.w3.org/2000/svg">
<g clip-path="url(#clip0_3069_4563)">
<path d="M22.6432 5.53831C26.4324 13.7161 30.2522 21.8939 34.072 30.1319C34.1942 30.0116 34.2859 29.9214 34.3776 29.8312C35.5082 28.1476 36.3333 26.3737 36.8833 24.4194C37.3723 22.7057 37.6167 20.9619 37.5556 19.2181C37.464 15.1893 36.1805 11.5213 33.7053 8.30434C32.2385 6.38014 30.4356 4.81673 28.3576 3.58405C26.738 2.62195 24.9962 1.87031 23.1016 1.47946C22.796 1.41933 22.4904 1.3592 22.1848 1.29907C21.9709 1.23894 21.8487 1.32913 21.757 1.50953C20.9625 3.04287 20.168 4.57621 19.3735 6.13962C17.9984 8.81545 16.6232 11.4612 15.2787 14.137C14.2397 16.1514 13.2007 18.1959 12.1617 20.2103C10.9394 22.5855 9.71708 24.9907 8.4642 27.3659C7.57801 29.1097 6.69182 30.8535 5.77507 32.5973C5.62228 32.8979 5.65284 33.0783 5.92786 33.2888C6.47791 33.7097 7.02796 34.1607 7.54745 34.5816C7.7308 34.7319 7.82247 34.7019 7.94471 34.4914C8.8309 32.7476 9.68653 31.0038 10.5727 29.26C11.795 26.8247 13.0479 24.3593 14.2703 21.924C15.4926 19.4586 16.7455 17.0233 17.9678 14.558C19.2818 11.9723 20.5958 9.38669 21.8793 6.77099C22.0932 6.35008 22.2765 5.95922 22.4904 5.53831C22.5821 5.53831 22.6127 5.53831 22.6432 5.53831Z" fill="#262626"/>
<path d="M3.48377 30.2221C3.72823 29.7711 3.94214 29.3502 4.18661 28.8992C5.83675 25.6521 7.4869 22.4051 9.13704 19.188C10.5733 16.3619 11.979 13.5357 13.4152 10.7096C14.8514 7.85334 16.3182 4.99712 17.7545 2.11083C17.9073 1.84024 18.06 1.53958 18.1823 1.26899C18.3045 0.998402 18.2434 0.87814 17.9378 0.938271C16.8072 1.0886 15.6459 1.17879 14.5153 1.41932C11.5511 2.05069 8.95369 3.37358 6.63126 5.26771C4.30884 7.16183 2.56702 9.50694 1.37525 12.2429C0.672409 13.8664 0.214036 15.5501 0.000128329 17.2939C-0.183221 19.0678 -0.183221 20.8116 0.122361 22.5854C0.519618 24.9306 1.34469 27.0953 2.56702 29.1097C2.75037 29.4404 2.96428 29.741 3.17818 30.0417C3.2393 30.1319 3.26986 30.2221 3.30042 30.3123C3.39209 30.2822 3.45321 30.2522 3.48377 30.2221Z" fill="#262626"/>
<path d="M30.8962 32.3868C30.01 30.4927 29.1239 28.5685 28.2377 26.6443H15.7394C15.006 28.0874 14.242 29.5306 13.5392 31.0038C12.7446 32.5973 12.0112 34.2208 11.2473 35.8443C11.0334 36.2953 11.0945 36.3554 11.5529 36.5058C12.5307 36.8064 13.478 37.1672 14.4865 37.3777C16.32 37.7986 18.184 37.9189 20.0786 37.7084C20.9342 37.6182 21.7899 37.5581 22.615 37.3476C23.8373 37.0169 25.0596 36.596 26.2514 36.0849C27.9321 35.3633 29.3989 34.311 30.7434 33.1384C30.9573 32.8678 31.049 32.7175 30.8962 32.3868Z" fill="#C2C2C4"/>
<path d="M26.7084 23.3069C26.0361 21.8037 25.3332 20.3305 24.661 18.8272C23.9581 17.3239 23.2858 15.8507 22.583 14.3474C22.5219 14.1971 22.4302 14.0468 22.308 13.8363C22.0024 14.4075 21.7579 14.8886 21.5135 15.3696C21.269 15.8507 21.0245 16.3618 20.7495 16.8429C19.6494 19.0076 18.5493 21.1723 17.4492 23.3069H26.7084Z" fill="#CA0100"/>
<path d="M51.1549 10.3198C51.766 10.3198 52.1327 10.5002 52.4994 11.1917L56.3803 18.1369C56.472 18.2872 56.4415 18.4075 56.2275 18.4075H54.7302C54.5774 18.4075 54.5163 18.3774 54.4552 18.2571L53.6301 16.7538H48.0991L47.274 18.2571C47.2129 18.3774 47.1518 18.4075 46.999 18.4075H45.471C45.2571 18.4075 45.2266 18.2872 45.3183 18.1369L49.1686 11.1917C49.5658 10.5002 49.902 10.3198 50.3909 10.3198H51.1549ZM48.863 15.431H52.8967L51.0326 12.0336C51.0021 11.9734 50.9715 11.9434 50.9104 11.9434H50.8493C50.7882 11.9434 50.7576 11.9734 50.7271 12.0336L48.863 15.431Z" fill="#262626"/>
<path d="M64.51 10.3188C66.1296 10.3188 66.7407 10.9501 66.7407 12.2129V12.7541C66.7407 13.4155 66.4963 13.8966 65.9768 14.2273C66.5268 14.5279 66.8019 15.039 66.8019 15.7306V16.392C66.8019 17.6247 66.2824 18.4064 64.7239 18.4064H57.7261C57.4816 18.4064 57.3594 18.2861 57.3594 18.0456V10.6495C57.3594 10.409 57.4816 10.2887 57.7261 10.2887H64.51V10.3188ZM59.1929 13.6861H64.0211C64.785 13.6861 65.0295 13.4456 65.0295 12.9946V12.6037C65.0295 12.1227 64.785 11.9122 64.1739 11.9122H59.3762C59.2845 11.9122 59.2234 11.9724 59.2234 12.0626L59.1929 13.6861ZM59.1929 14.9489V16.6626C59.1929 16.7528 59.254 16.8129 59.3457 16.8129H64.1739C64.785 16.8129 65.0295 16.6025 65.0295 16.1214V15.6704C65.0295 15.1894 64.785 14.9489 64.0211 14.9489H59.1929Z" fill="#262626"/>
<path d="M76.6728 10.3188C76.8561 10.3188 76.9173 10.409 76.9173 10.5593V11.7018C76.9173 11.8822 76.8256 11.9724 76.6728 11.9724H71.4473C70.225 11.9724 69.8889 12.3332 69.8889 13.5358V15.1894C69.8889 16.4221 70.2556 16.7828 71.4473 16.7828H76.6728C76.8561 16.7828 76.9173 16.873 76.9173 17.0234V18.1659C76.9173 18.3463 76.8256 18.4064 76.6728 18.4064H71.3862C69.0027 18.4064 68.0859 17.5646 68.0859 15.3397V13.3554C68.0859 11.1305 69.0027 10.2887 71.3862 10.2887L76.6728 10.3188Z" fill="#262626"/>
<path d="M87.3658 10.3188C87.977 10.3188 88.3437 10.4992 88.7104 11.1907L92.5913 18.1359C92.683 18.2862 92.6524 18.4065 92.4385 18.4065H90.9411C90.7884 18.4065 90.7272 18.3764 90.6661 18.2561L89.8411 16.7529H84.31L83.4849 18.2561C83.4238 18.3764 83.3627 18.4065 83.2099 18.4065H81.682C81.4681 18.4065 81.4375 18.2862 81.5292 18.1359L85.4407 11.2208C85.8379 10.5293 86.1741 10.3489 86.663 10.3489H87.3658V10.3188ZM85.074 15.43H89.1077L87.2436 12.0326C87.213 11.9725 87.1825 11.9424 87.1214 11.9424H87.0602C86.9991 11.9424 86.9686 11.9725 86.938 12.0326L85.074 15.43Z" fill="#262626"/>
<path d="M94.6398 10.3188C94.8232 10.3188 94.8843 10.409 94.8843 10.5594V15.1895C94.8843 16.4222 95.251 16.7829 96.4427 16.7829H99.7125C100.935 16.7829 101.271 16.4222 101.271 15.1895V10.5594C101.271 10.379 101.363 10.3188 101.515 10.3188H102.799C102.982 10.3188 103.043 10.409 103.043 10.5594V15.3398C103.043 17.5646 102.127 18.4065 99.743 18.4065H96.3511C93.9675 18.4065 93.0508 17.5646 93.0508 15.3398V10.5594C93.0508 10.379 93.1425 10.3188 93.3258 10.3188H94.6398Z" fill="#262626"/>
<path d="M113.556 10.3188C113.739 10.3188 113.831 10.409 113.831 10.5594V11.7019C113.831 11.8823 113.739 11.9725 113.556 11.9725H109.858V18.166C109.858 18.3463 109.767 18.4065 109.614 18.4065H108.33C108.147 18.4065 108.086 18.3163 108.086 18.166V11.9725H104.388C104.205 11.9725 104.113 11.8823 104.113 11.7019V10.5594C104.113 10.379 104.205 10.3188 104.388 10.3188H113.556Z" fill="#262626"/>
<path d="M121.468 10.3188C123.852 10.3188 124.768 11.1607 124.768 13.3855V15.3699C124.768 17.5947 123.852 18.4365 121.468 18.4365H117.832C115.448 18.4365 114.531 17.5947 114.531 15.3699V13.3855C114.531 11.1607 115.448 10.3188 117.832 10.3188H121.468ZM116.334 15.2496C116.334 16.4522 116.701 16.813 117.893 16.813H121.376C122.599 16.813 122.935 16.4522 122.935 15.2496V13.5058C122.935 12.3032 122.568 11.9424 121.376 11.9424H117.893C116.67 11.9424 116.334 12.3032 116.334 13.5058V15.2496Z" fill="#262626"/>
<path d="M48.8642 23.7279C49.9948 23.7279 50.3921 24.1188 50.3921 25.1711V26.1031C50.3921 27.1554 49.9643 27.5462 48.8642 27.5462H47.1529C46.0528 27.5462 45.625 27.1554 45.625 26.1031V25.1711C45.625 24.1188 46.0528 23.7279 47.1529 23.7279H48.8642ZM46.4806 26.043C46.4806 26.6142 46.6334 26.7645 47.214 26.7645H48.8336C49.4142 26.7645 49.567 26.5841 49.567 26.043V25.2312C49.567 24.6599 49.4142 24.5096 48.8336 24.5096H47.214C46.6334 24.5096 46.4806 24.69 46.4806 25.2312V26.043Z" fill="#737373"/>
<path d="M53.7243 23.4573C53.816 23.4573 53.8465 23.4873 53.8465 23.5775V24.5396H54.5493C55.5272 24.5396 55.8634 24.8403 55.8634 25.6521V26.4338C55.8634 27.2155 55.5578 27.5161 54.5493 27.5161H53.8465V28.5985C53.8465 28.6887 53.816 28.7187 53.7243 28.7187H53.1742C53.0826 28.7187 53.052 28.6887 53.052 28.5985V27.5161H52.3492C51.3713 27.5161 51.0352 27.2155 51.0352 26.4338V25.6521C51.0352 24.8704 51.3407 24.5396 52.3492 24.5396H53.052V23.5775C53.052 23.4873 53.0826 23.4573 53.1742 23.4573H53.7243ZM51.8297 26.3135C51.8297 26.7645 51.9519 26.9148 52.4408 26.9148H53.0826V25.2011H52.4408C51.9825 25.2011 51.8297 25.3514 51.8297 25.8024V26.3135ZM53.8465 25.2011V26.9148H54.4882C54.9772 26.9148 55.0994 26.7645 55.0994 26.3135V25.8024C55.0994 25.3514 54.9772 25.2011 54.4882 25.2011H53.8465Z" fill="#737373"/>
<path d="M57.1449 24.5697C57.2366 24.5697 57.2672 24.5998 57.2672 24.69V26.7645C57.2672 26.7946 57.2977 26.8246 57.2977 26.8246H57.3588C57.3894 26.8246 57.42 26.8246 57.42 26.7946L59.0701 24.9004C59.2535 24.6599 59.3757 24.5697 59.7424 24.5697H60.048C60.3841 24.5697 60.5369 24.69 60.5369 25.1409V27.4259C60.5369 27.5161 60.5063 27.5462 60.4147 27.5462H59.8646C59.7729 27.5462 59.7424 27.5161 59.7424 27.4259V25.3514C59.7424 25.3213 59.7424 25.2913 59.7118 25.2913H59.6507C59.6202 25.2913 59.5896 25.2913 59.5896 25.3213L57.9395 27.2155C57.7255 27.456 57.6339 27.5462 57.2672 27.5462H56.9616C56.6254 27.5462 56.4727 27.4259 56.4727 26.9749V24.69C56.4727 24.5998 56.5032 24.5697 56.5949 24.5697H57.1449Z" fill="#737373"/>
<path d="M61.9113 24.5697C62.0029 24.5697 62.0335 24.5998 62.0335 24.69V26.7946C62.0335 26.8847 62.064 26.9148 62.1557 26.9148H64.5393V24.72C64.5393 24.6298 64.5698 24.5998 64.6615 24.5998H65.2115C65.3032 24.5998 65.3338 24.6298 65.3338 24.72V26.9148H66.0672C66.1589 26.9148 66.1894 26.9449 66.1894 27.0351V28.4482C66.1894 28.5384 66.1589 28.5684 66.0672 28.5684H65.6394C65.5477 28.5684 65.5171 28.5384 65.5171 28.4482V27.5462H61.789C61.4223 27.5462 61.2695 27.3959 61.2695 27.0952V24.72C61.2695 24.6298 61.3001 24.5998 61.3918 24.5998L61.9113 24.5697Z" fill="#737373"/>
<path d="M67.3214 24.5697C67.4131 24.5697 67.4436 24.5998 67.4436 24.69V26.7645C67.4436 26.7946 67.4742 26.8246 67.4742 26.8246H67.5353C67.5659 26.8246 67.5964 26.8246 67.5964 26.7946L69.2466 24.9004C69.4299 24.6599 69.5522 24.5697 69.9189 24.5697H70.2244C70.5606 24.5697 70.7134 24.69 70.7134 25.1409V27.4259C70.7134 27.5161 70.6828 27.5462 70.5911 27.5462H70.0411C69.9494 27.5462 69.9189 27.5161 69.9189 27.4259V25.3514C69.9189 25.3213 69.9189 25.2913 69.8883 25.2913H69.8577C69.8272 25.2913 69.7966 25.2913 69.7966 25.3213L68.1465 27.2155C67.9326 27.456 67.8409 27.5462 67.4742 27.5462H67.1686C66.8325 27.5462 66.6797 27.4259 66.6797 26.9749V24.69C66.6797 24.5998 66.7102 24.5697 66.8019 24.5697H67.3214Z" fill="#737373"/>
<path d="M73.8599 24.5697C74.8377 24.5697 75.1739 24.8704 75.1739 25.6821V27.1253C75.1739 27.4861 75.0822 27.5462 74.7766 27.5462H72.1486C71.5069 27.5462 71.293 27.3057 71.293 26.7645V26.4939C71.293 26.0429 71.4763 25.7723 72.1486 25.7723H74.3793V25.6821C74.3793 25.3213 74.2571 25.2011 73.7682 25.2011H71.4763C71.4152 25.2011 71.3846 25.171 71.3846 25.1109V24.6599C71.3846 24.5998 71.4152 24.5697 71.4763 24.5697H73.8599ZM74.3793 26.7344V26.2534H72.3625C72.1486 26.2534 72.0569 26.3436 72.0569 26.524V26.6442C72.0569 26.8246 72.1486 26.9148 72.3625 26.9148H74.2266C74.3488 26.9449 74.3793 26.8848 74.3793 26.7344Z" fill="#737373"/>
<path d="M79.1183 24.5697C79.4544 24.5697 79.5767 24.7201 79.5767 24.9907V27.3959C79.5767 27.4861 79.5461 27.5162 79.4544 27.5162H78.9044C78.8127 27.5162 78.7821 27.4861 78.7821 27.3959V25.3214C78.7821 25.2612 78.7516 25.2312 78.6905 25.2312H77.4987C77.3765 25.2312 77.3765 25.2913 77.3459 25.3514C77.2848 25.6521 77.1931 26.524 76.9792 27.005C76.8264 27.3358 76.6431 27.5162 76.1847 27.5162H75.6652C75.6041 27.5162 75.543 27.4861 75.543 27.3959V27.005C75.543 26.9149 75.5735 26.8848 75.6652 26.8848H76.0625C76.2152 26.8848 76.3375 26.8547 76.4597 26.5541C76.582 26.2534 76.6736 25.7122 76.7653 24.9005C76.7959 24.69 76.8875 24.5397 77.2237 24.5397H79.1183V24.5697Z" fill="#737373"/>
<path d="M80.9184 24.5697C81.01 24.5697 81.0406 24.5998 81.0406 24.69V25.4717H83.1186C83.8825 25.4717 84.1881 25.7723 84.1881 26.3135V26.6743C84.1881 27.2455 83.8825 27.5161 83.1186 27.5161H80.3989C80.3072 27.5161 80.2461 27.456 80.2461 27.3658V24.69C80.2461 24.5998 80.2767 24.5697 80.3683 24.5697H80.9184ZM81.0406 26.0429V26.8547C81.0406 26.8848 81.0712 26.9148 81.1017 26.9148H82.9658C83.3019 26.9148 83.4241 26.7946 83.4241 26.5841V26.3736C83.4241 26.1331 83.3019 26.0429 82.9658 26.0429H81.0406Z" fill="#737373"/>
<path d="M85.4731 24.5697C85.5647 24.5697 85.5953 24.5998 85.5953 24.69V25.7122H88.1011V24.69C88.1011 24.5998 88.1316 24.5697 88.2233 24.5697H88.7734C88.865 24.5697 88.8956 24.5998 88.8956 24.69V27.4259C88.8956 27.5161 88.865 27.5462 88.7734 27.5462H88.2233C88.1316 27.5462 88.1011 27.5161 88.1011 27.4259V26.3436H85.5953V27.4259C85.5953 27.5161 85.5647 27.5462 85.4731 27.5462H84.923C84.8313 27.5462 84.8008 27.5161 84.8008 27.4259V24.69C84.8008 24.5998 84.8313 24.5697 84.923 24.5697H85.4731Z" fill="#737373"/>
<path d="M90.2387 24.5697C90.3304 24.5697 90.3609 24.5998 90.3609 24.69V25.4717H92.4389C93.2028 25.4717 93.5084 25.7723 93.5084 26.3135V26.6743C93.5084 27.2455 93.2028 27.5161 92.4389 27.5161H89.7192C89.6275 27.5161 89.5664 27.456 89.5664 27.3658V24.69C89.5664 24.5998 89.597 24.5697 89.6886 24.5697H90.2387ZM90.3609 26.0429V26.8547C90.3609 26.8848 90.3915 26.9148 90.422 26.9148H92.2861C92.6222 26.9148 92.7445 26.7946 92.7445 26.5841V26.3736C92.7445 26.1331 92.6222 26.0429 92.2861 26.0429H90.3609ZM94.6085 24.5697C94.7002 24.5697 94.7308 24.5998 94.7308 24.69V27.4259C94.7308 27.5161 94.7002 27.5462 94.6085 27.5462H94.0585C93.9668 27.5462 93.9362 27.5161 93.9362 27.4259V24.69C93.9362 24.5998 93.9668 24.5697 94.0585 24.5697H94.6085Z" fill="#737373"/>
<path d="M96.0785 24.5697C96.1702 24.5697 96.2008 24.5998 96.2008 24.69V26.7645C96.2008 26.7946 96.2313 26.8247 96.2313 26.8247H96.2924C96.323 26.8247 96.3535 26.8247 96.3535 26.7946L98.0037 24.9005C98.187 24.6599 98.3093 24.5697 98.676 24.5697H98.9816C99.3177 24.5697 99.4705 24.69 99.4705 25.141V27.426C99.4705 27.5162 99.4399 27.5462 99.3483 27.5462H98.7982C98.7065 27.5462 98.676 27.5162 98.676 27.426V25.3514C98.676 25.3214 98.676 25.2913 98.6454 25.2913H98.5843C98.5537 25.2913 98.5232 25.2913 98.5232 25.3214L96.873 27.2155C96.6591 27.456 96.5675 27.5462 96.2008 27.5462H95.8952C95.559 27.5462 95.4062 27.426 95.4062 26.975V24.69C95.4062 24.5998 95.4368 24.5697 95.5285 24.5697H96.0785ZM96.1396 23.3371C96.1396 23.2769 96.1702 23.2168 96.2313 23.2168C96.2619 23.2168 96.323 23.2469 96.3841 23.2769C96.5063 23.3671 96.9036 23.6978 97.4536 23.6978C98.0037 23.6978 98.4009 23.3671 98.5232 23.2769C98.5843 23.2469 98.6149 23.2168 98.6454 23.2168C98.7065 23.2168 98.7371 23.2769 98.7371 23.3371V23.6076C98.7371 23.6978 98.7371 23.758 98.6454 23.8181C98.4621 23.9684 97.9426 24.209 97.4231 24.209C96.9036 24.209 96.4147 23.9985 96.2008 23.8181C96.1091 23.7279 96.0785 23.6678 96.0785 23.6076V23.3371H96.1396Z" fill="#737373"/>
<path d="M105.487 24.5697C105.823 24.5697 105.946 24.7201 105.946 24.9907V26.8848H106.679C106.771 26.8848 106.801 26.9149 106.801 27.005V28.4181C106.801 28.5083 106.771 28.5384 106.679 28.5384H106.221C106.129 28.5384 106.098 28.5083 106.098 28.4181V27.5162H102.493V28.4181C102.493 28.5083 102.462 28.5384 102.37 28.5384H101.943C101.851 28.5384 101.82 28.5083 101.82 28.4181V27.005C101.82 26.9149 101.851 26.8848 101.943 26.8848H102.401C102.554 26.8848 102.676 26.8547 102.798 26.5541C102.92 26.2534 103.012 25.7122 103.104 24.9005C103.134 24.69 103.226 24.5397 103.562 24.5397H105.487V24.5697ZM105.151 26.8848V25.3214C105.151 25.2612 105.121 25.2312 105.059 25.2312H103.868C103.745 25.2312 103.745 25.2913 103.715 25.3514C103.684 25.6521 103.562 26.3737 103.409 26.8848H105.151Z" fill="#737373"/>
<path d="M107.934 24.5697C108.026 24.5697 108.056 24.5998 108.056 24.69V26.7645C108.056 26.7946 108.087 26.8246 108.087 26.8246H108.148C108.178 26.8246 108.209 26.8246 108.209 26.7946L109.859 24.9004C110.043 24.6599 110.165 24.5697 110.531 24.5697H110.837C111.173 24.5697 111.326 24.69 111.326 25.1409V27.4259C111.326 27.5161 111.295 27.5462 111.204 27.5462H110.654C110.562 27.5462 110.531 27.5161 110.531 27.4259V25.3514C110.531 25.3213 110.531 25.2913 110.501 25.2913H110.44C110.409 25.2913 110.379 25.2913 110.379 25.3213L108.729 27.2155C108.515 27.456 108.423 27.5462 108.056 27.5462H107.751C107.415 27.5462 107.262 27.4259 107.262 26.9749V24.69C107.262 24.5998 107.292 24.5697 107.384 24.5697H107.934Z" fill="#737373"/>
<path d="M115.36 24.5697C115.697 24.5697 115.819 24.7201 115.819 24.9907V27.3959C115.819 27.4861 115.788 27.5162 115.697 27.5162H115.147C115.055 27.5162 115.024 27.4861 115.024 27.3959V25.3214C115.024 25.2612 114.994 25.2312 114.933 25.2312H113.741C113.619 25.2312 113.619 25.2913 113.588 25.3514C113.527 25.6521 113.435 26.524 113.221 27.005C113.069 27.3358 112.885 27.5162 112.427 27.5162H111.907C111.846 27.5162 111.785 27.4861 111.785 27.3959V27.005C111.785 26.9149 111.816 26.8848 111.907 26.8848H112.305C112.457 26.8848 112.58 26.8547 112.702 26.5541C112.824 26.2534 112.916 25.7122 113.007 24.9005C113.038 24.69 113.13 24.5397 113.466 24.5397H115.36V24.5697Z" fill="#737373"/>
<path d="M119.332 24.5697C120.096 24.5697 120.279 24.8103 120.279 25.4717V25.9828C120.279 26.2233 120.188 26.2835 119.974 26.2835H117.193V26.4037C117.193 26.7345 117.315 26.8848 117.804 26.8848H120.096C120.157 26.8848 120.188 26.9148 120.188 26.975V27.426C120.188 27.4861 120.157 27.5162 120.096 27.5162H117.712C116.735 27.5162 116.398 27.2155 116.398 26.4338V25.6521C116.398 24.8704 116.704 24.5397 117.712 24.5397L119.332 24.5697ZM117.193 25.7724H119.424C119.485 25.7724 119.515 25.7423 119.515 25.6822V25.4416C119.515 25.2312 119.424 25.141 119.179 25.141H117.804C117.315 25.141 117.193 25.2913 117.193 25.622V25.7724Z" fill="#737373"/>
<path d="M123.701 24.5697C124.679 24.5697 125.015 24.8704 125.015 25.6822V26.4639C125.015 27.2456 124.709 27.5462 123.701 27.5462H121.623V28.6286C121.623 28.7188 121.592 28.7488 121.5 28.7488H120.95C120.859 28.7488 120.828 28.7188 120.828 28.6286V25.6521C120.828 24.8704 121.134 24.5397 122.142 24.5397L123.701 24.5697ZM121.623 26.8848H123.609C124.098 26.8848 124.22 26.7345 124.22 26.2835V25.8024C124.22 25.3514 124.098 25.2011 123.609 25.2011H122.234C121.775 25.2011 121.623 25.3514 121.623 25.8024V26.8848Z" fill="#737373"/>
</g>
<defs>
<clipPath id="clip0_3069_4563">
<rect width="127" height="36.8904" fill="white" transform="translate(0 0.908203)"/>
</clipPath>
</defs>
</svg>
