<svg width="11" height="11" viewBox="0 0 11 11" fill="none" xmlns="http://www.w3.org/2000/svg">
<path d="M10.282 8.72423L9.13765 7.96126L8.12035 7.28318C7.92402 7.15256 7.66017 7.19538 7.51523 7.38143L6.88574 8.19067C6.75052 8.36627 6.50728 8.41674 6.31337 8.30938C5.88624 8.07178 5.38114 7.84807 4.26668 6.73218C3.15221 5.61628 2.92707 5.11262 2.68948 4.68549C2.58212 4.49158 2.63258 4.24833 2.80818 4.11313L3.61743 3.48364C3.80346 3.33873 3.8463 3.07488 3.71567 2.87853L3.05842 1.89255L2.27462 0.716837C2.14121 0.516719 1.87416 0.456638 1.66791 0.580327L0.763971 1.12262C0.519679 1.26655 0.340104 1.49897 0.262444 1.77169C0.0152487 2.67295 -0.0345894 4.66109 3.15167 7.84735C6.33793 11.0336 8.32589 10.9836 9.22715 10.7364C9.49987 10.6588 9.73229 10.4792 9.87622 10.2349L10.4185 9.33094C10.5422 9.12467 10.4821 8.85764 10.282 8.72423Z" fill="white"/>
</svg>
