<svg width="11" height="12" viewBox="0 0 11 12" fill="none" xmlns="http://www.w3.org/2000/svg">
<path d="M5.5 0.224609C2.46718 0.224609 0 2.68879 0 5.71793C0 8.74707 2.46718 11.2113 5.5 11.2113C8.53282 11.2113 11 8.74707 11 5.71793C11 2.68879 8.53282 0.224609 5.5 0.224609ZM8.11572 8.55931C8.02634 8.64858 7.90902 8.69351 7.79169 8.69351C7.67437 8.69351 7.55696 8.64858 7.46767 8.55931L5.17597 6.27048C5.08978 6.1849 5.04169 6.06856 5.04169 5.94685V2.97127C5.04169 2.71813 5.24697 2.51352 5.5 2.51352C5.75303 2.51352 5.95831 2.71813 5.95831 2.97127V5.75733L8.11572 7.91204C8.2949 8.09108 8.2949 8.38035 8.11572 8.55931Z" fill="white"/>
</svg>
